<mxfile host="app.diagrams.net" modified="2023-04-13T06:43:58.430Z" agent="Mozilla/5.0 (Windows NT 10.0; Win64; x64) AppleWebKit/537.36 (KHTML, like Gecko) Chrome/112.0.0.0 Safari/537.36" version="21.1.7" etag="mJDSnhZyf93ty5qj5PoH" type="github">
  <diagram name="페이지-1" id="MJM8aEVxXbG2EPH6wSez">
    <mxGraphModel>
      <root>
        <mxCell id="0" />
        <mxCell id="1" parent="0" />
      </root>
    </mxGraphModel>
  </diagram>
</mxfile>
